<svg width="95" height="32" viewBox="0 0 95 32" fill="none" xmlns="http://www.w3.org/2000/svg">
<path fill-rule="evenodd" clip-rule="evenodd" d="M31.6705 4.22754H32.7753V8.73795C32.4203 8.66848 31.8134 8.5973 31.2064 8.5973C28.7104 8.5973 26.1078 9.86749 26.1078 13.1069V22.0222H21.3641V4.40421H25.0004L25.6437 6.34337H26.2143C26.9996 5.5672 28.7467 4.22754 31.6705 4.22754ZM9.19889 18.4422C11.9106 18.4422 13.5486 16.2938 13.5486 13.5458C13.5486 10.7971 11.9106 8.64863 9.19889 8.64863C6.48982 8.64863 4.67079 10.7971 4.67079 13.5458C4.67079 16.2938 6.48982 18.4422 9.19889 18.4422ZM35.9168 22.0221H40.4812V4.40414H35.9168V22.0221ZM9.05621 22.5296C4.20603 22.5296 0 19.1136 0 13.5817C0 7.94434 4.41901 4.56089 9.19906 4.56089C14.0129 4.56089 18.2224 7.97779 18.2224 13.5122C18.2224 19.1136 13.87 22.5296 9.05621 22.5296ZM68.1243 22.0221H72.6887V4.40414H68.1243V22.0221ZM88.1541 4.22754C92.7532 4.22754 95 7.61099 95 12.4722V22.0222H90.2563V13.5297C90.2563 12.9302 90.684 8.49181 87.2624 8.31513C85.5853 8.21049 82.5914 9.1239 82.5914 13.7398V22.0222H77.8841V4.40421H81.5204L82.1273 6.55522H82.7343C83.4806 5.6744 85.1576 4.22754 88.1541 4.22754ZM53.9759 17.7222C56.685 17.7222 58.3257 15.5738 58.3257 12.8258C58.3257 10.077 56.685 7.92861 53.9759 7.92861C51.2651 7.92861 49.4478 10.077 49.4478 12.8258C49.4478 15.5738 51.2651 17.7222 53.9759 17.7222ZM44.6341 27.1307L47.6592 24.1392C51.2799 27.7174 57.1518 27.7174 60.7708 24.1392L63.795 27.1307C58.505 32.3582 49.9241 32.3582 44.6341 27.1307ZM53.2997 3.72525V3.69952H56.9361C58.9066 3.69952 60.5005 2.12229 60.5005 0.17627H64.7802C64.7802 2.98767 63.2668 5.44914 61.001 6.80681C62.2633 8.29742 63.033 10.282 63.033 12.6483C63.033 18.2522 58.6832 21.6691 53.8694 21.6691C49.0192 21.6691 44.8106 18.2522 44.8106 12.7204C44.8106 7.36515 48.8019 4.04344 53.2997 3.72525Z" fill="#1D1E1F"/>
</svg>
