<?xml version="1.0" encoding="UTF-8"?>
<svg width="40px" height="18px" viewBox="0 0 40 18" version="1.1" xmlns="http://www.w3.org/2000/svg" xmlns:xlink="http://www.w3.org/1999/xlink">
    <!-- Generator: Sketch 61 (89581) - https://sketch.com -->
    <title>icon / Insurances / insuranceAuto</title>
    <desc>Created with Sketch.</desc>
    <g id="Dashboard" stroke="none" stroke-width="1" fill="none" fill-rule="evenodd">
        <g id="1-Dt-1440-3-setupDashboard-1-Default" transform="translate(-267.000000, -280.000000)" fill="#657786">
            <g id="Other-services" transform="translate(152.000000, 224.000000)">
                <g id="Services" transform="translate(0.000000, 9.000000)">
                    <g id="Line-1">
                        <g id="Product-Card-1">
                            <g id="icon-/-Savings-/-goCollege" transform="translate(115.000000, 36.000000)">
                                <g id="mortarboard" transform="translate(0.000000, 11.000000)">
                                    <path d="M31.7518511,14.8449856 L31.7518511,8.41508134 L21.2823164,10.485177 C20.868666,10.5665167 20.442606,10.6071866 20.016546,10.6071866 C19.590486,10.6071866 19.1685626,10.5665167 18.7507756,10.485177 L8.28124095,8.41508134 L8.28124095,14.8449856 C8.28124095,16.5083828 13.5346019,17.8586627 20.0165047,17.8586627 C26.4984074,17.8586627 31.7518511,16.5124498 31.7518511,14.8449856 Z" id="Path"></path>
                                    <path d="M39.1602896,3.71364593 L21.0382627,0.126564593 C20.7031644,0.061492823 20.3598759,0.0248899522 20.016546,0.0248899522 C19.6732161,0.0248899522 19.3340228,0.0574258373 18.9948294,0.126564593 L0.872802482,3.71364593 C-0.23582213,3.93326316 -0.23582213,5.48685167 0.872802482,5.7064689 L8.28128232,7.17058373 L18.9948294,9.28948325 C19.3299276,9.35455502 19.6732161,9.39115789 20.016546,9.39115789 C20.3598759,9.39115789 20.6990693,9.35862201 21.0382627,9.28948325 L31.7518097,7.17058373 L35.0858325,6.51173206 L35.0858325,14.1332225 C34.6928645,14.470823 34.4446743,14.9710622 34.4446743,15.5241316 C34.4446743,16.5449856 35.2885212,17.37461 36.3267839,17.37461 C37.3650879,17.37461 38.2088935,16.5449856 38.2088935,15.5241316 C38.2088935,14.9669545 37.9607032,14.470823 37.5677353,14.1332225 L37.5677353,6.01958612 L39.1602896,5.7064689 C40.2647363,5.48689234 40.2647363,3.93326316 39.1602896,3.71364593 Z" id="Path"></path>
                                </g>
                            </g>
                        </g>
                    </g>
                </g>
            </g>
        </g>
    </g>
</svg>