<?xml version="1.0" encoding="UTF-8"?>
<svg width="25px" height="40px" viewBox="0 0 25 40" version="1.1" xmlns="http://www.w3.org/2000/svg" xmlns:xlink="http://www.w3.org/1999/xlink">
    <!-- Generator: Sketch 61 (89581) - https://sketch.com -->
    <title>icon / Insurances / insuranceAuto</title>
    <desc>Created with Sketch.</desc>
    <g id="Dashboard" stroke="none" stroke-width="1" fill="none" fill-rule="evenodd">
        <g id="1-Dt-1440-3-setupDashboard-1-Default" transform="translate(-562.000000, -501.000000)" fill="#657786">
            <g id="Other-services" transform="translate(152.000000, 224.000000)">
                <g id="Services" transform="translate(0.000000, 9.000000)">
                    <g id="Line-2" transform="translate(0.000000, 232.000000)">
                        <g id="Product-Card-1" transform="translate(288.000000, 0.000000)">
                            <g id="icon-/-Savings-/-haveBaby" transform="translate(115.000000, 36.000000)">
                                <path d="M19.5,1.59872116e-13 C26.4035594,1.59872116e-13 32,5.75633893 32,12.8571429 L32,12.8571429 L32,27.1428571 C31.9809248,34.2355182 26.3956427,39.9803798 19.5,40 C12.6043573,39.9803798 7.01907519,34.2355182 7,27.1428571 L7,27.1428571 L7,12.8571429 C7,5.75633893 12.5964406,1.59872116e-13 19.5,1.59872116e-13 Z M21.1399904,25.7234413 C20.5216773,25.6707226 19.9229885,25.9612994 19.5694444,26.4857143 C19.2159004,25.9612994 18.6172116,25.6707226 17.9988985,25.7234413 C17.3805853,25.77616 16.8365842,26.1641649 16.5718151,26.7412984 C16.3070461,27.3184319 16.3617337,27.9970137 16.7152778,28.5214286 L16.7152778,28.5214286 L18.1041667,30.6642857 C18.4280578,31.1487838 18.963072,31.4382325 19.5347222,31.4382325 C20.1063724,31.4382325 20.6413866,31.1487838 20.9652778,30.6642857 L20.9652778,30.6642857 L22.3541667,28.5214286 L22.4236111,28.5214286 C22.7771552,27.9970137 22.8318428,27.3184319 22.5670738,26.7412984 C22.3023047,26.1641649 21.7583036,25.77616 21.1399904,25.7234413 Z M22.5972222,4.89285714 C22.5244739,4.86462982 22.442878,4.87505096 22.3790506,4.92072124 C22.3152232,4.96639153 22.2773473,5.04145584 22.2777778,5.12142857 C22.2739684,6.22831592 21.4025294,7.12465321 20.3263889,7.12857143 L20.3263889,7.12857143 L18.7083333,7.12857143 C17.6321929,7.12465321 16.7607538,6.22831592 16.7569444,5.12142857 L16.7569444,5.12142857 L16.7502779,5.06275194 C16.736815,5.00576081 16.7035422,4.95497396 16.6556716,4.92072124 C16.5918442,4.87505096 16.5102483,4.86462982 16.4375,4.89285714 C12.7227687,6.41258617 10.5806705,10.4315745 11.3328619,14.47014 C12.0850533,18.5087056 15.5195771,21.4288365 19.5173611,21.4288365 C23.5151451,21.4288365 26.9496689,18.5087056 27.7018603,14.47014 C28.4540517,10.4315745 26.3119535,6.41258617 22.5972222,4.89285714 Z M21.1111111,15.7428571 C21.2808263,15.539017 21.5473044,15.4502272 21.8009854,15.5129928 C22.0546664,15.5757583 22.2527349,15.779486 22.313757,16.040415 C22.3747791,16.301344 22.2884557,16.5754358 22.0902778,16.75 C20.65972,18.2147351 18.3472244,18.2147351 16.9166667,16.75 L16.9166667,16.75 C16.687655,16.4665998 16.7035193,16.044147 16.9600255,15.780312 C17.2165318,15.516477 17.6272498,15.5001594 17.9027778,15.7428571 C18.7892365,16.6528798 20.2246524,16.6528798 21.1111111,15.7428571 Z M14.1527778,12.0285714 C14.8131801,11.3791322 15.8534866,11.3791322 16.5138889,12.0285714 C16.7120668,12.2031356 16.7983902,12.4772274 16.7373681,12.7381564 C16.6763461,12.9990854 16.4782775,13.2028131 16.2245965,13.2655787 C15.9709156,13.3283442 15.7044374,13.2395544 15.5347222,13.0357143 C15.4911598,12.9668379 15.4166914,12.9252893 15.3368056,12.9252893 C15.2569197,12.9252893 15.1824513,12.9668379 15.1388889,13.0357143 L15.1388889,13.0357143 C14.9622292,13.2395544 14.6957511,13.3283442 14.4420702,13.2655787 C14.1883892,13.2028131 13.9903206,12.9990854 13.9292985,12.7381564 C13.8682764,12.4772274 13.9545999,12.2031356 14.1527778,12.0285714 Z M22.4861111,12.0285714 C23.1465134,11.3791322 24.1868199,11.3791322 24.8472222,12.0285714 C25.0454001,12.2031356 25.1317236,12.4772274 25.0707015,12.7381564 C25.0096794,12.9990854 24.8116108,13.2028131 24.5579298,13.2655787 C24.3042489,13.3283442 24.0377708,13.2395544 23.8680556,13.0357143 C23.8244931,12.9668379 23.7500248,12.9252893 23.6701389,12.9252893 C23.590253,12.9252893 23.5157847,12.9668379 23.4722222,13.0357143 L23.4722222,13.0357143 C23.2955626,13.2395544 23.0290844,13.3283442 22.7754035,13.2655787 C22.5217225,13.2028131 22.3236539,12.9990854 22.2626319,12.7381564 C22.2016098,12.4772274 22.2879332,12.2031356 22.4861111,12.0285714 Z" id="haveBaby"></path>
                            </g>
                        </g>
                    </g>
                </g>
            </g>
        </g>
    </g>
</svg>