<?xml version="1.0" encoding="UTF-8"?>
<svg width="40px" height="37px" viewBox="0 0 40 37" version="1.1" xmlns="http://www.w3.org/2000/svg" xmlns:xlink="http://www.w3.org/1999/xlink">
    <!-- Generator: Sketch 61 (89581) - https://sketch.com -->
    <title>icon / Insurances / insuranceAuto</title>
    <desc>Created with Sketch.</desc>
    <g id="Dashboard" stroke="none" stroke-width="1" fill="none" fill-rule="evenodd">
        <g id="1-Dt-1440-3-setupDashboard-1-Default" transform="translate(-555.000000, -271.000000)" fill="#657786">
            <g id="Other-services" transform="translate(152.000000, 224.000000)">
                <g id="Services" transform="translate(0.000000, 9.000000)">
                    <g id="Line-1">
                        <g id="Product-Card-1" transform="translate(288.000000, 0.000000)">
                            <g id="icon-/-Savings-/-timeOff" transform="translate(115.000000, 36.000000)">
                                <path d="M35.2173402,34.3981843 C36.2496463,34.3981843 37.2141775,34.805782 37.9331239,35.5460475 L37.9331239,35.5460475 L39.7372676,37.4033541 C40.0950132,37.7716269 40.0865082,38.3604382 39.7173338,38.7183484 C39.348691,39.0757271 38.7599788,39.0680215 38.4019674,38.6992173 L38.4019674,38.6992173 L36.5978237,36.8419108 C36.2321045,36.465401 35.7417326,36.2581479 35.2168086,36.2581479 C34.6918847,36.2581479 34.2012469,36.465401 33.8355277,36.8419108 L33.8355277,36.8419108 L32.8542522,37.8521367 C32.1353057,38.5924023 31.1705088,39 30.1382026,39 C29.1058965,39 28.1410996,38.5924023 27.4221531,37.8521367 L27.4221531,37.8521367 L26.4408775,36.8419108 C26.0751584,36.465401 25.5847864,36.2581479 25.0598624,36.2581479 C24.5349385,36.2581479 24.0443007,36.465401 23.6785815,36.8419108 L23.6785815,36.8419108 L22.697306,37.8521367 C21.9783595,38.5924023 21.0138283,39 19.9815222,39 C18.9489503,39 17.9844191,38.5924023 17.2654727,37.8521367 L17.2654727,37.8521367 L16.2841971,36.8419108 C15.9184779,36.465401 15.428106,36.2581479 14.903182,36.2581479 C14.3782581,36.2581479 13.8876203,36.465401 13.5219011,36.8419108 L13.5219011,36.8419108 L12.5406256,37.8521367 C11.8216791,38.5924023 10.8571479,39 9.8248418,39 C8.79253566,39 7.82800452,38.5924023 7.10879226,37.8521367 L7.10879226,37.8521367 L6.12751671,36.8419108 C5.76179754,36.465401 5.27142555,36.2581479 4.74623581,36.2581479 C4.22131186,36.2581479 3.73093987,36.465401 3.3652207,36.8419108 L3.3652207,36.8419108 L1.60413408,38.6923089 C1.24984363,39.064833 0.661131456,39.0789156 0.289033467,38.7252568 C-0.0830645229,38.3710666 -0.0979484425,37.7825209 0.256342,37.4105282 L0.256342,37.4105282 L2.02407323,35.5532217 C2.74966431,34.805782 3.71419546,34.3981843 4.7465016,34.3981843 C5.77880773,34.3981843 6.74333888,34.805782 7.46255114,35.5460475 L7.46255114,35.5460475 L8.44382669,36.5562735 C8.80981164,36.9327833 9.30018364,37.1400364 9.82510758,37.1400364 C10.3500315,37.1400364 10.8404035,36.9327833 11.2061227,36.5562735 L11.2061227,36.5562735 L12.187664,35.5460475 C12.9068763,34.805782 13.8711417,34.3981843 14.9037136,34.3981843 C15.9360197,34.3981843 16.9005509,34.805782 17.6194973,35.5460475 L17.6194973,35.5460475 L18.6007729,36.5562735 C18.9664921,36.9327833 19.456864,37.1400364 19.9820538,37.1400364 C20.5067119,37.1400364 20.9973497,36.9327833 21.3630689,36.5562735 L21.3630689,36.5562735 L22.3443444,35.5460475 C23.0632909,34.805782 24.0278221,34.3981843 25.060394,34.3981843 C26.0927001,34.3981843 27.0572313,34.805782 27.7761777,35.5460475 L27.7761777,35.5460475 L28.7574533,36.5562735 C29.1231725,36.9327833 29.6138102,37.1400364 30.1387342,37.1400364 C30.6636581,37.1400364 31.1542959,36.9327833 31.5200151,36.5562735 L31.5200151,36.5562735 L32.5012906,35.5460475 C33.2202371,34.805782 34.1847683,34.3981843 35.2173402,34.3981843 Z M20.7533598,3.09686983 C23.7694797,4.45384616 26.0767531,6.90368397 27.2496591,9.99547495 C27.2698587,10.0483511 27.2828821,10.1025557 27.2929819,10.1567604 C27.2961713,10.1732343 27.2982976,10.1894426 27.3004239,10.2059165 C27.3057396,10.2476329 27.3083974,10.2890835 27.3081316,10.3305341 L27.3083974,10.371719 L27.3083974,10.371719 C27.3057396,10.4243294 27.2988292,10.4761427 27.2874004,10.5271588 C27.2844768,10.5404443 27.2799585,10.5529326 27.2765033,10.5659524 C27.2658719,10.605543 27.2528485,10.6446023 27.2369014,10.6825987 C27.2307884,10.6972127 27.2249411,10.7115609 27.2180308,10.7259092 C27.1983627,10.7673599 27.1755053,10.8077476 27.1494584,10.8462755 C27.1452059,10.8526525 27.1420164,10.8592952 27.1374981,10.8656722 C27.1109197,10.9028715 27.0819492,10.9384765 27.0495235,10.9719559 C27.0447394,10.9767386 27.0391579,10.9807243 27.0343738,10.985507 C27.0226793,10.9971982 27.0096559,11.0078266 26.997164,11.0189864 C26.9671304,11.0455573 26.9360336,11.0700025 26.9033422,11.0923221 C26.8897872,11.1013562 26.876498,11.1109217 26.8624114,11.1194244 C26.8153676,11.1478553 26.766729,11.1728319 26.7159643,11.1924944 C26.7141038,11.1930258 26.7125091,11.1943544 26.7103828,11.1951515 C26.7034724,11.1978086 26.696562,11.19834 26.6896516,11.2007314 C26.6455314,11.2161425 26.6006139,11.2280994 26.5546332,11.2368678 C26.5378888,11.2400563 26.5211444,11.2429791 26.5044,11.2453705 C26.4578877,11.2514818 26.4113755,11.2546703 26.3643317,11.2538732 C26.3568897,11.2536075 26.3494477,11.2546703 26.3420058,11.2544046 C26.2899121,11.2522789 26.2375525,11.2443077 26.1857246,11.2331479 C26.1697776,11.2296937 26.1543621,11.2251766 26.1386808,11.2209253 C26.1192785,11.2156111 26.0998763,11.2121569 26.0810056,11.2057799 C22.8983053,10.1249018 22.2198511,11.465549 21.7994613,12.5700627 L21.7349011,12.7421098 C21.5687859,13.187704 21.0932978,13.4366734 20.6324279,13.3184328 C18.7518009,12.8372806 17.3815974,12.905714 16.3853204,13.120782 L16.2028671,13.1627273 L20.4785543,24.431 L20.6582014,24.4295122 C26.7632674,24.4295122 32.1453826,27.4846443 35.320804,32.1304297 C35.2863713,32.1297435 35.251882,32.1293995 35.2173402,32.1293995 C33.840063,32.1293995 32.5465456,32.6760567 31.5899158,33.6610537 L30.608704,34.671214 C30.4807468,34.8029465 30.3191046,34.8712516 30.1387342,34.8712516 C29.9583638,34.8712516 29.7967215,34.8029465 29.6687654,34.671215 L28.6874889,33.660988 C27.7309552,32.6760901 26.4374522,32.1293995 25.060394,32.1293995 C23.6831168,32.1293995 22.3895994,32.6760567 21.4329696,33.6610537 L20.4517578,34.671214 C20.3238088,34.8029381 20.1621696,34.8712516 19.9820538,34.8712516 C19.8015393,34.8712516 19.6401255,34.8030334 19.512085,34.671215 L18.5308085,33.660988 C17.5742748,32.6760901 16.2807718,32.1293995 14.9037136,32.1293995 C13.5265611,32.1293995 12.2333671,32.6759595 11.2764505,33.6608876 L10.2949298,34.6710923 C10.1667782,34.803025 10.0053676,34.8712516 9.82510758,34.8712516 C9.64478299,34.8712516 9.48320502,34.802964 9.35482167,34.6708886 L8.37386226,33.660988 C7.69179663,32.9589565 6.83879667,32.4796074 5.90644741,32.2621459 C8.63555862,28.1902053 13.048925,25.3142232 18.1665056,24.601516 L18.534,24.554 L14.463309,13.822483 C13.5439612,14.3074021 12.4072018,15.1685652 11.2510402,16.8757461 C10.9844586,17.269527 10.4635214,17.3986616 10.0435823,17.175466 C8.9796478,16.6092399 7.52368152,15.8341665 5.77163156,18.9070921 C5.76100019,18.9254261 5.74850833,18.9419 5.73681382,18.9594368 C5.72910607,18.9708623 5.72219568,18.9828192 5.71395637,18.993979 L5.66565008,19.0548596 L5.61295834,19.1111567 L5.5355819,19.1772518 L5.48325562,19.2153147 C5.47156111,19.2232859 5.46013238,19.2315229 5.44790631,19.2389628 C5.40219141,19.2668622 5.35435024,19.2910418 5.3043828,19.3107042 C5.30039603,19.3122985 5.29720662,19.3146899 5.29321986,19.3162841 C5.28471476,19.3197383 5.27567809,19.3208012 5.26690721,19.323724 L5.21115896,19.3411944 L5.15421468,19.3550777 L5.11195498,19.3635803 L5.03829951,19.3732123 L4.96364735,19.3768658 L4.92723491,19.3761019 L4.89108824,19.373943 C4.87939374,19.3728802 4.86796501,19.3699574 4.8562705,19.3686288 C4.83527355,19.3662374 4.81454237,19.3633146 4.7938112,19.359329 C4.76909326,19.3548119 4.74490689,19.3492321 4.72098631,19.3425893 C4.70211562,19.3372751 4.68324494,19.331961 4.66464004,19.3255839 L4.62846015,19.3122985 L4.59287828,19.2974188 L4.54078457,19.2732393 L4.47460428,19.2352429 L4.47460428,19.2352429 L4.42490262,19.2030921 L4.36722743,19.1573901 L4.34343974,19.1375948 L4.3204494,19.1170023 L4.27021617,19.0630634 C4.25639539,19.0476522 4.24204304,19.0327725 4.22928539,19.0162986 L4.20546448,18.9828856 L4.18303893,18.948277 L4.15353687,18.9028408 C4.13094521,18.862453 4.1107456,18.820471 4.09400119,18.776629 C2.92109517,15.684838 3.02262477,12.3214923 4.37971929,9.30595986 C5.73681382,6.29042739 8.18761065,3.98380678 11.2800107,2.81123256 C14.3726766,1.63839264 17.7367082,1.74042493 20.7533598,3.09686983 Z M9.72437534,5.70586739 C8.1426931,6.78491201 6.88234406,8.27925993 6.07675191,10.0693421 C6.01136898,10.2149507 5.95023859,10.3613564 5.89176605,10.5085592 L5.83967233,10.6446023 L5.83967233,10.6446023 L5.78056855,10.8027988 L5.72405617,10.9615932 L5.67355716,11.1098589 C5.63581579,11.2246452 5.6002007,11.3396972 5.56644609,11.4552807 C5.55581472,11.4911514 5.544386,11.5270221 5.5342862,11.5628929 C5.49229228,11.7130185 5.45348778,11.8636756 5.41813847,12.014864 L5.39474945,12.1227419 L5.39474945,12.1227419 C5.36843681,12.2399196 5.34425044,12.3576288 5.32219034,12.4756036 C5.31288789,12.5258226 5.30411701,12.5763073 5.29561192,12.6265264 C5.27674123,12.7359985 5.25973104,12.8457364 5.24458133,12.9557399 C5.23793673,13.0025047 5.23102634,13.0492695 5.22517908,13.0963 C5.20604261,13.2493485 5.1892982,13.4029283 5.17680634,13.5581024 C5.16458027,13.7124794 5.15660674,13.8671221 5.15129105,14.0220305 C5.15005073,14.0533842 5.14762914,14.2041298 5.14654631,14.3340517 L5.14624115,14.4957898 C5.1470385,14.546806 5.14757007,14.5978221 5.14889899,14.6488382 C5.15208841,14.7681416 5.15740409,14.8871793 5.16458027,15.0064827 L5.1706933,15.116752 L5.1706933,15.116752 L5.18963043,15.3481514 L5.21375036,15.5793515 L5.22783692,15.6856351 L5.2518904,15.8649555 L5.27913329,16.0440767 L5.30544593,16.1968594 L5.33255593,16.3363567 C6.75662809,14.7854127 8.201963,14.659998 9.30948609,14.9012619 C8.21977054,10.9350223 8.84516095,7.81320619 9.72437534,5.70586739 Z M12.1052709,4.49237398 C12.0502536,4.51203645 11.9949704,4.52957325 11.9402189,4.55029856 C11.8854673,4.57102387 11.8323105,4.59467198 11.7780905,4.61619441 C10.7165481,6.29919579 9.24543207,9.74703695 10.6147527,14.6347557 C11.7879245,13.2405801 13.0958489,12.2930615 14.6538764,11.7021244 C16.2119038,11.1114531 17.8185698,10.9533562 19.6221819,11.219331 C17.4044778,6.65338601 14.0162599,5.04797168 12.1052709,4.49237398 Z M14.3649688,3.94607609 C16.421076,4.94062521 18.9601132,6.86223335 20.7754198,10.5526669 C21.4441331,9.63729909 22.608534,8.772416 24.7039773,8.99029746 L24.6651728,8.92466731 L24.6651728,8.92466731 C24.5439751,8.72432266 24.4182592,8.52769793 24.2845697,8.3369188 C24.2675595,8.31247357 24.2492204,8.28909117 24.2319444,8.26491164 C24.1088863,8.09220073 23.9799809,7.92400688 23.846823,7.75953295 L23.748217,7.63783819 L23.748217,7.63783819 C23.6004409,7.46087593 23.4473492,7.28843073 23.2881444,7.12156543 L23.1948541,7.0272387 L23.1948541,7.0272387 L22.9763795,6.81058615 L22.751526,6.6005099 L22.65292,6.51016881 C22.4798944,6.35738608 22.3010216,6.21044895 22.1176305,6.06882601 C22.0764339,6.03720663 22.03444,6.00665008 21.9929776,5.97556212 C21.8226099,5.84802175 21.6485212,5.72473274 21.4696484,5.60728932 C21.4443989,5.59081536 21.4202125,5.57301285 21.394963,5.55680459 C21.1974853,5.42952994 20.9941603,5.30996085 20.7871144,5.19517452 L20.6398699,5.11546179 L20.6398699,5.11546179 C20.4275082,5.00200401 20.2119572,4.89253187 19.9900273,4.79289096 C18.1994386,3.9875267 16.2650606,3.70454652 14.3649688,3.94607609 Z" id="Combined-Shape"></path>
                            </g>
                        </g>
                    </g>
                </g>
            </g>
        </g>
    </g>
</svg>