<?xml version="1.0" encoding="UTF-8"?>
<svg width="40px" height="34px" viewBox="0 0 40 34" version="1.1" xmlns="http://www.w3.org/2000/svg" xmlns:xlink="http://www.w3.org/1999/xlink">
    <!-- Generator: Sketch 61 (89581) - https://sketch.com -->
    <title>icon / Insurances / insuranceAuto</title>
    <desc>Created with Sketch.</desc>
    <g id="Dashboard" stroke="none" stroke-width="1" fill="none" fill-rule="evenodd">
        <g id="1-Dt-1440-3-setupDashboard-1-Default" transform="translate(-843.000000, -272.000000)" fill="#657786">
            <g id="Other-services" transform="translate(152.000000, 224.000000)">
                <g id="Services" transform="translate(0.000000, 9.000000)">
                    <g id="Line-1">
                        <g id="Product-Card-1" transform="translate(576.000000, 0.000000)">
                            <g id="icon-/-Savings-/-buyCar" transform="translate(115.000000, 36.000000)">
                                <path d="M32.9747351,22.8029981 C36.8553108,22.8039815 40.0004865,25.9823429 40,29.9023889 C39.9995135,33.822435 36.8535491,37 32.9729732,37 C29.0928341,36.9955822 25.9488598,33.8184348 25.9459459,29.8988285 C25.9474059,25.9787826 29.0941594,22.8020153 32.9747351,22.8029981 Z M32.6689446,25.2557001 C32.5244362,25.3399807 32.4261674,25.4838249 32.3974253,25.6464882 L32.3887095,25.7460185 L32.3887095,26.2801419 C31.1646637,26.5231681 30.4561448,27.3216827 30.4561448,28.3391879 C30.4561448,29.4608472 31.2915627,30.0377006 32.5156084,30.4543169 C33.3616012,30.7454142 33.7290793,31.0124759 33.7290793,31.4611396 C33.7290793,31.9098033 33.2822893,32.1768651 32.6292887,32.1768651 C32.2080732,32.1745132 31.7900957,32.1023374 31.3920243,31.9632157 C31.3214004,31.9387027 31.247271,31.9260718 31.1725949,31.925827 C30.9125609,31.9236239 30.679919,32.0781777 30.5760882,32.3124353 L30.5433878,32.4038675 L30.5301692,32.4599505 C30.4449701,32.8020601 30.6368356,33.1523318 30.9690279,33.2611357 C31.3246303,33.3812785 31.6916209,33.4627839 32.0637774,33.5044431 L32.3437661,33.5281974 L32.3437661,34.0623209 C32.3437661,34.3750085 32.5946972,34.6284918 32.9042363,34.6284918 C33.1828216,34.6284918 33.4139342,34.4231703 33.4573709,34.1541568 L33.4647065,34.0623209 L33.4647065,33.4320552 C34.7812828,33.2023821 35.5030203,32.3371021 35.5030203,31.2955613 C35.5030203,30.2540206 34.953125,29.6184136 33.5916054,29.1323613 C32.6213575,28.7638161 32.219511,28.5207899 32.219511,28.1388916 C32.219511,27.8157469 32.4600901,27.4926022 33.2029775,27.4926022 C33.5457769,27.4914415 33.8869018,27.5409264 34.2155251,27.6394862 C34.2747439,27.6571996 34.3361819,27.6661942 34.3979423,27.6661923 C34.7288063,27.662779 35.0066228,27.4136635 35.0492196,27.0821981 C35.0918163,26.7507327 34.8861751,26.4382176 34.5671408,26.349578 C34.3076872,26.2823852 34.043355,26.2368735 33.77682,26.2134283 L33.5096499,26.1973528 L33.5096499,25.7460185 C33.5096499,25.5437451 33.4028249,25.3568368 33.2294148,25.2557001 C33.0560047,25.1545634 32.8423547,25.1545634 32.6689446,25.2557001 Z M23.3607952,3.40301248 C24.57526,3.61240061 26.3298792,4.09050351 27.5337528,5.8005066 C28.2010023,6.77416142 29.2989632,9.17165554 30.1462642,11.3004349 C30.6331542,10.8135198 31.2719088,10.5068182 31.9557398,10.4274715 L32.1621346,10.4105353 L32.8293841,10.4105353 C33.7471642,10.4212077 34.4983122,11.1151372 34.5861771,12.0023689 L34.5945946,12.1519466 L34.5945946,13.4187448 C34.5766208,14.3604848 33.8442821,15.1278101 32.9112242,15.2149413 L32.7623061,15.2229726 L31.8832313,15.2229726 C31.9726687,15.3323197 32.0597524,15.4486465 32.1444825,15.5719528 C32.9451903,16.7685608 33.3797722,18.1655965 33.3998432,19.5958638 L33.3977819,19.9027974 L33.397542,20.3567629 C33.1563283,20.3375199 32.9124935,20.3276855 32.6663969,20.3276232 C28.4558727,20.3265567 24.9059891,23.1863347 23.8180668,27.0884555 L7.13498068,27.0883001 L7.13498068,28.4458332 C7.13498068,29.3814723 6.40603278,30.1488154 5.47889534,30.2232106 L5.33093559,30.2291221 L2.99732736,30.2291221 C2.51763301,30.2272808 2.05843222,30.0366662 1.72122781,29.6994123 C1.42149055,29.399631 1.24008656,29.0059308 1.2061148,28.5891221 L1.20034311,28.431874 L1.20034311,19.9027974 C1.15500471,18.3673096 1.58888394,16.8552382 2.44305128,15.5719528 L2.57014643,15.3992076 L2.57014643,15.3992076 L2.70430242,15.2229726 L1.82522762,15.2229726 C0.866084746,15.2049931 0.0870695299,14.4716627 0.00679294734,13.5425667 L0,13.3943162 L0,12.127518 C0.0108348732,11.2190292 0.714737871,10.4759733 1.61366831,10.390661 L1.76521046,10.3826169 L2.43246001,10.3826169 C3.19341621,10.4193616 3.91275144,10.7369098 4.44833036,11.2725165 C5.30269222,9.15769633 6.39006187,6.75671241 7.06790268,5.793527 C8.27177622,4.09399332 10.0263954,3.60542101 11.2408602,3.39603287 C13.2438783,3.09338471 15.2697583,2.96377221 17.2955321,3.00866483 C19.3250417,2.96547183 21.3544936,3.09742151 23.3607952,3.40301248 Z M6.35951489,17.4671131 C6.05303995,17.6997778 5.85811232,18.044947 5.81606371,18.4205822 L5.80754241,18.5627133 L5.80754241,19.4107353 C5.80754241,20.1363313 6.36759717,20.7326246 7.08370954,20.800266 L7.21971078,20.8066561 L10.5241848,20.8066561 C11.210874,20.7770766 11.7762816,20.2630682 11.8634669,19.5891234 C11.9448398,18.9601083 11.5875662,18.3623092 11.0053521,18.123248 L10.8772269,18.0776308 L7.57275287,17.2226293 C7.15182884,17.115182 6.7042992,17.2053653 6.35951489,17.4671131 Z M27.1594273,17.1940974 L27.0183113,17.2226293 L23.7138373,18.0776308 C23.0567751,18.2770686 22.640412,18.9151786 22.7275973,19.5891234 C22.8089703,20.2181385 23.3069279,20.7078313 23.9312644,20.7943773 L24.0668794,20.8066561 L27.3607621,20.8066561 C28.0948036,20.8066561 28.6980373,20.253045 28.766466,19.5451717 L28.7729305,19.4107353 L28.7835218,18.5627133 C28.7799408,18.1329972 28.5763336,17.7288609 28.2315493,17.4671131 C27.9250743,17.2344484 27.5374179,17.1373408 27.1594273,17.1940974 Z" id="Combined-Shape"></path>
                            </g>
                        </g>
                    </g>
                </g>
            </g>
        </g>
    </g>
</svg>