<?xml version="1.0" encoding="UTF-8"?>
<svg width="40px" height="39px" viewBox="0 0 40 39" version="1.1" xmlns="http://www.w3.org/2000/svg" xmlns:xlink="http://www.w3.org/1999/xlink">
    <!-- Generator: Sketch 61 (89581) - https://sketch.com -->
    <title>icon / Insurances / insuranceAuto</title>
    <desc>Created with Sketch.</desc>
    <g id="Dashboard" stroke="none" stroke-width="1" fill="none" fill-rule="evenodd">
        <g id="1-Dt-1440-3-setupDashboard-1-Default" transform="translate(-267.000000, -502.000000)" fill="#657786">
            <g id="Other-services" transform="translate(152.000000, 224.000000)">
                <g id="Services" transform="translate(0.000000, 9.000000)">
                    <g id="Line-2" transform="translate(0.000000, 232.000000)">
                        <g id="Product-Card-1">
                            <g id="icon-/-Savings-/-emergencyFund" transform="translate(115.000000, 36.000000)">
                                <path d="M38.0730929,18.4307221 C37.6379124,18.3330602 37.1845753,18.35881 36.7629018,18.5051417 C35.9616499,15.5333037 34.2790736,12.8822461 31.9425413,10.9102091 C31.6796991,9.48016481 31.9895764,8.00295672 32.8037573,6.80472839 C33.0197524,6.44009656 33.0088658,5.98200548 32.7757998,5.62832371 C32.5427339,5.27464195 32.129259,5.08875677 31.7139721,5.15095972 C28.9588973,5.51065441 27.3793211,6.80472839 26.4936156,7.98717299 C25.4589196,7.69174784 24.3954986,7.5115238 23.3222184,7.44969817 C23.3032138,7.44786896 23.2840807,7.44786896 23.2650761,7.44969817 C25.2121465,12.9010481 23.4658496,19.0022661 18.9421132,22.5532806 C14.4183768,26.104295 8.14988971,26.2944722 3.42445594,23.0240646 C3.40632602,23.0700151 3.39798075,23.1193259 3.39967966,23.1687694 C3.58406591,27.2009935 5.36435604,30.9879928 8.33869306,33.6743348 C9.36203954,34.5738622 9.9563051,35.8740901 9.97132998,37.2464752 L9.97132998,39.0160076 C9.97132998,39.5594516 10.4062491,40 10.9427489,40 L16.848813,40 C17.3853129,40 17.820232,39.5594516 17.820232,39.0160076 L17.820232,37.490406 L18.2283912,37.490406 L22.5140631,37.490406 L22.5140631,39.0077388 C22.5140631,39.5511828 22.9489822,39.9917312 23.4854821,39.9917312 L29.4119541,39.9917312 C29.948454,39.9917312 30.3833731,39.5511828 30.3833731,39.0077388 L30.3833731,37.6599173 C30.3733987,36.2341054 30.9786757,34.8749915 32.0404995,33.9389378 C34.3416005,31.9616508 35.9931787,29.3209776 36.7751466,26.3688117 C37.197437,26.5125131 37.6504253,26.5368137 38.0853377,26.4390969 C39.2252744,26.1524106 40.0190091,25.1066855 39.9996045,23.9170997 L39.9996045,20.9651226 C40.0203796,19.7683134 39.2206752,18.7162712 38.0730929,18.4307221 Z M30.8037771,18.6911907 C30.2111219,18.6911907 29.6768234,18.329563 29.4500241,17.774934 C29.2232248,17.2203051 29.3485889,16.5818995 29.7676594,16.1574049 C30.1867299,15.7329102 30.8169779,15.6059235 31.3645199,15.8356583 C31.9120619,16.0653931 32.2690915,16.6066072 32.2690915,17.2069333 C32.2712416,17.6020136 32.1178229,17.981668 31.8427915,18.2618112 C31.5677602,18.5419544 31.1938151,18.6994595 30.8037771,18.6994595 L30.8037771,18.6911907 Z M10.8488723,22.978586 C16.8400076,22.978586 21.6969927,18.0593513 21.6977438,11.9906708 C21.6984948,5.9219903 16.8427275,1.00152268 10.8515924,1.00000035 C4.86045723,0.998478732 0.00225400125,5.91647864 0,11.9851587 C0.00449861126,18.0531585 4.85841116,22.9717466 10.8488723,22.978586 Z M9.94684043,6.38301738 L9.94684043,5.55613304 C9.94684041,5.24299068 10.1117652,4.95363519 10.3794892,4.797064 C10.6472132,4.64049282 10.9770628,4.64049282 11.2447868,4.797064 C11.5125108,4.95363519 11.6774356,5.24299068 11.6774356,5.55613304 L11.6774356,6.25485031 C12.2285096,6.27279089 12.7759862,6.35181608 13.3100725,6.49051234 C13.8026225,6.62773666 14.1201073,7.11154577 14.0543432,7.62469222 C13.988579,8.13783868 13.5596643,8.52349794 13.0488506,8.52878223 C12.9535,8.52878511 12.8586473,8.51486041 12.7672207,8.48743801 C12.2598664,8.33485614 11.7332112,8.2582479 11.2039709,8.26004482 C10.0570434,8.26004482 9.68561852,8.76030984 9.68561852,9.26057486 C9.68561852,9.85179716 10.3060205,10.2280295 11.8039649,10.7985797 C13.905985,11.5510445 14.7549562,12.5350368 14.7549562,14.1474613 C14.7549562,15.7598857 13.6406815,17.0994384 11.6080485,17.4549986 L11.6080485,18.4307221 C11.6080485,18.9147983 11.2206416,19.3072195 10.7427509,19.3072195 C10.2648603,19.3072195 9.87745336,18.9147983 9.87745336,18.4307221 L9.87745336,17.6038378 C9.15501386,17.5619216 8.44128368,17.4228892 7.75502536,17.1903956 C7.24216098,17.0219547 6.94594409,16.479694 7.07748104,15.9500691 L7.097889,15.8632463 C7.21954461,15.4226496 7.61766454,15.1193477 8.06930797,15.1231848 C8.1845987,15.1235637 8.29904552,15.1431179 8.40808013,15.1810667 C9.02265386,15.396443 9.66795999,15.5081795 10.3182653,15.5118204 C11.3264186,15.5118204 12.0162077,15.0983783 12.0162077,14.4037954 C12.0162077,13.7092126 11.4488664,13.2957704 10.1427569,12.8451185 C8.25297962,12.2001487 6.96319646,11.3071136 6.96319646,9.57065649 C6.96319646,7.99544183 8.05706319,6.75924975 9.94684043,6.38301738 Z" id="Shape"></path>
                            </g>
                        </g>
                    </g>
                </g>
            </g>
        </g>
    </g>
</svg>