<svg viewBox="0 0 32 32" fill="none" xmlns="http://www.w3.org/2000/svg"><path fill-rule="evenodd" clip-rule="evenodd" d="M29.925 13.628c1.478 1.573-.832 3.887-2.31 2.314L15.6 4.002a1427.628 1427.628 0 01-6.075 6.038c-1.964 1.944-3.917 3.877-5.94 5.902-1.478 1.573-3.788-.74-2.31-2.314l2.034-1.944V4.837h4.805v1.943L14.4.486c.647-.648 1.756-.648 2.403 0l13.123 13.142zM17.224 29.177a8.1 8.1 0 01-.699-3.298c.002-4.418 3.523-7.998 7.865-7.997.972 0 1.903.18 2.762.509v-1.246c-.028-.028-.064-.056-.104-.087-.092-.07-.201-.154-.265-.283L15.6 5.669 4.418 16.775c-.065.129-.174.213-.266.283-.04.03-.076.059-.104.087v12.032H8.11v-8.543c0-.901.462-1.546 1.017-1.546h3.696c.555 0 1.017.645 1.017 1.546v8.543h3.384zM24.388 32c3.32 0 6.012-2.738 6.012-6.117 0-3.378-2.69-6.117-6.01-6.118-3.321-.001-6.014 2.737-6.015 6.115.003 3.378 2.693 6.116 6.013 6.12zm-.5-9.239v-.46a.49.49 0 01.24-.422.472.472 0 01.479 0 .49.49 0 01.24.422v.389c.305.01.609.054.905.131a.578.578 0 01.412.632.571.571 0 01-.557.503.54.54 0 01-.156-.023 2.958 2.958 0 00-.867-.127c-.635 0-.841.279-.841.557 0 .33.344.539 1.174.857 1.165.418 1.635.966 1.635 1.864 0 .897-.617 1.643-1.744 1.841v.543c0 .27-.214.488-.48.488a.484.484 0 01-.479-.488v-.46c-.4-.023-.796-.1-1.176-.23a.58.58 0 01-.376-.69l.012-.05a.556.556 0 01.726-.379c.34.12.698.182 1.058.184.56 0 .942-.23.942-.616 0-.387-.315-.617-1.039-.868-1.047-.36-1.762-.856-1.762-1.823 0-.877.606-1.565 1.654-1.775z" fill="#657786"/></svg>
