<svg width="40" height="40" viewBox="0 0 40 40" fill="none" xmlns="http://www.w3.org/2000/svg">
<path fill-rule="evenodd" clip-rule="evenodd" d="M37.4059 17.035C39.2542 19.0017 36.3662 21.8939 34.5178 19.9272L19.5 5.0035C16.8862 7.6211 14.3891 10.0925 11.9061 12.5499L11.906 12.5501C9.45077 14.9801 7.0093 17.3965 4.48216 19.9272C2.63381 21.8939 -0.254241 19.0017 1.59411 17.035L4.13559 14.6056V6.04469H10.1427V8.47413L17.9982 0.607361C18.8069 -0.202454 20.1931 -0.202454 21.0018 0.607361L37.4059 17.035ZM21.5294 36.4706C20.9695 35.2139 20.6573 33.8186 20.6562 32.3492C20.6583 26.8268 25.0594 22.3516 30.4868 22.3529C31.7022 22.3533 32.8659 22.578 33.9402 22.9887V21.4312C33.9053 21.3961 33.8597 21.3611 33.8099 21.3229C33.6954 21.2348 33.5587 21.1297 33.4781 20.9684L19.5 7.08588L5.52185 20.9684C5.44131 21.1297 5.30461 21.2348 5.19006 21.3229C5.14031 21.3611 5.09474 21.3961 5.05976 21.4312V36.4706H10.1376V25.7925C10.1376 24.6656 10.7152 23.8606 11.4083 23.8606H16.0292C16.7223 23.8606 17.2999 24.6656 17.2999 25.7925V36.4706H21.5294ZM30.4844 40C34.6348 40 37.9995 36.5769 38 32.3539C38.0005 28.1309 34.6367 24.7069 30.4863 24.7059C26.3359 24.7048 22.9703 28.1271 22.9688 32.3501C22.9719 36.5726 26.3344 39.9952 30.4844 40ZM29.8595 28.4517V27.8763C29.8595 27.6584 29.9737 27.4571 30.1592 27.3481C30.3447 27.2392 30.5732 27.2392 30.7586 27.3481C30.9441 27.4571 31.0584 27.6584 31.0584 27.8763V28.3625C31.4401 28.375 31.8194 28.43 32.1894 28.5265C32.5306 28.622 32.7505 28.9587 32.705 29.3158C32.6594 29.6729 32.3623 29.9412 32.0084 29.9449C31.9424 29.9449 31.8767 29.9352 31.8133 29.9161C31.4619 29.8099 31.097 29.7566 30.7304 29.7579C29.9358 29.7579 29.6785 30.106 29.6785 30.4541C29.6785 30.8655 30.1083 31.1273 31.146 31.5244C32.6022 32.048 33.1903 32.7327 33.1903 33.8547C33.1903 34.9768 32.4184 35.9089 31.0103 36.1563V36.8353C31.0103 37.1722 30.7419 37.4452 30.4109 37.4452C30.0798 37.4452 29.8114 37.1722 29.8114 36.8353V36.2599C29.3109 36.2307 28.8165 36.134 28.3411 35.9722C27.9858 35.855 27.7806 35.4777 27.8717 35.1091L27.8859 35.0487C27.9701 34.7421 28.2459 34.531 28.5588 34.5337C28.6387 34.534 28.718 34.5476 28.7935 34.574C29.2193 34.7239 29.6663 34.8016 30.1168 34.8041C30.8152 34.8041 31.2931 34.5164 31.2931 34.0331C31.2931 33.5498 30.9 33.2621 29.9952 32.9485C28.6861 32.4997 27.7925 31.8782 27.7925 30.6699C27.7925 29.5738 28.5503 28.7135 29.8595 28.4517Z" fill="#657786"/>
</svg>
