<svg xmlns="http://www.w3.org/2000/svg" width="48" height="48" viewBox="0 0 48 48">
    <path fill="#657786" fill-rule="evenodd" d="M36.584 29.647c4.98.001 9.017 4.11 9.016 9.178 0 5.067-4.038 9.175-9.019 9.175-4.98-.006-9.015-4.113-9.019-9.18.002-5.067 4.041-9.174 9.022-9.173zm-.393 3.17a.732.732 0 0 0-.351.524l-.009.11v.691c-1.57.314-2.48 1.347-2.48 2.662 0 1.45 1.072 2.196 2.643 2.734 1.086.376 1.558.722 1.558 1.302 0 .58-.574.925-1.412.925a4.864 4.864 0 0 1-1.588-.276.831.831 0 0 0-1.052.463l-.037.106-.017.073a.869.869 0 0 0 .563 1.036c.457.155.928.26 1.405.314l.36.03v.691c0 .405.322.732.719.732a.724.724 0 0 0 .713-.632l.006-.1v-.814c1.69-.297 2.616-1.416 2.616-2.762 0-1.347-.705-2.168-2.453-2.797-1.245-.476-1.76-.79-1.76-1.284 0-.418.308-.836 1.261-.836a4.44 4.44 0 0 1 1.3.19.811.811 0 0 0 .234.035.857.857 0 0 0 .836-.755.866.866 0 0 0-.619-.947 6.179 6.179 0 0 0-1.014-.176l-.343-.02v-.584a.734.734 0 0 0-.36-.634.709.709 0 0 0-.719 0zM23.4 8.504l16.774 16.66c.138.277.416.416.554.554v1.87a11.588 11.588 0 0 0-4.144-.763c-6.513-.002-11.794 5.368-11.797 11.995a12.147 12.147 0 0 0 1.048 4.946H20.76V30.951c0-1.29-.63-2.23-1.411-2.312l-.113-.006H13.69c-.794 0-1.462.88-1.52 2.136l-.005.182v12.813H6.072V25.718c.138-.138.416-.277.554-.555L23.4 8.503zM25.202.73l19.685 19.713c2.218 2.36-1.248 5.83-3.466 3.47L23.4 6.005c-6.238 6.247-11.922 11.8-18.021 17.909-2.218 2.36-5.684-1.11-3.466-3.471l3.05-2.915V7.254h7.208v2.915l9.427-9.44c.97-.972 2.634-.972 3.604 0z"/>
</svg>
