<svg width="31" height="32" viewBox="0 0 31 32" fill="none" xmlns="http://www.w3.org/2000/svg">
<path fill-rule="evenodd" clip-rule="evenodd" d="M29.9248 13.628C31.4034 15.2014 29.093 17.5151 27.6143 15.9418L15.6 4.0028C13.509 6.09688 11.5114 8.07397 9.52496 10.04C7.56076 11.984 5.60754 13.9171 3.58577 15.9418C2.10709 17.5151 -0.203344 15.2014 1.27534 13.628L3.30852 11.6845V4.83575H8.11423V6.77931L14.3986 0.485889C15.0455 -0.161963 16.1546 -0.161963 16.8015 0.485889L29.9248 13.628ZM17.2236 29.1765C16.7757 28.1711 16.5259 27.0548 16.525 25.8794C16.5267 21.4615 20.0476 17.8813 24.3895 17.8824C25.3618 17.8826 26.2928 18.0624 27.1523 18.3909V17.1449C27.1243 17.1169 27.0878 17.0889 27.048 17.0583C26.9564 16.9878 26.847 16.9038 26.7826 16.7747L15.6001 5.66869L4.41757 16.7747C4.35313 16.9038 4.24377 16.9878 4.15213 17.0583C4.11234 17.0889 4.07588 17.1169 4.0479 17.1449V29.1765H8.11008V20.634C8.11008 19.7325 8.57217 19.0885 9.12667 19.0885H12.8234C13.3779 19.0885 13.84 19.7325 13.84 20.634V29.1765H17.2236ZM24.3876 32C27.7079 32 30.3996 29.2615 30.4 25.8831C30.4005 22.5047 27.7094 19.7655 24.3891 19.7647C21.0687 19.7638 18.3763 22.5017 18.375 25.88C18.3775 29.258 21.0676 31.9962 24.3876 32ZM23.8877 22.7614V22.3011C23.8877 22.1267 23.9791 21.9656 24.1274 21.8785C24.2758 21.7913 24.4586 21.7913 24.607 21.8785C24.7554 21.9656 24.8468 22.1267 24.8468 22.3011V22.69C25.1522 22.7 25.4556 22.744 25.7516 22.8212C26.0245 22.8976 26.2005 23.1669 26.164 23.4526C26.1276 23.7383 25.8899 23.953 25.6068 23.9559C25.554 23.9559 25.5014 23.9482 25.4507 23.9329C25.1695 23.8479 24.8777 23.8053 24.5844 23.8063C23.9487 23.8063 23.7429 24.0848 23.7429 24.3633C23.7429 24.6924 24.0867 24.9019 24.9169 25.2195C26.0818 25.6384 26.5523 26.1862 26.5523 27.0838C26.5523 27.9814 25.9348 28.7271 24.8083 28.9251V29.4682C24.8083 29.7377 24.5936 29.9562 24.3287 29.9562C24.0639 29.9562 23.8492 29.7377 23.8492 29.4682V29.0079C23.4488 28.9846 23.0533 28.9072 22.6729 28.7778C22.3887 28.684 22.2245 28.3821 22.2974 28.0873L22.3087 28.0389C22.3762 27.7937 22.5968 27.6248 22.8471 27.627C22.911 27.6272 22.9744 27.638 23.0349 27.6592C23.3755 27.7791 23.7331 27.8413 24.0935 27.8433C24.6522 27.8433 25.0345 27.6131 25.0345 27.2265C25.0345 26.8398 24.7201 26.6096 23.9962 26.3588C22.9489 25.9997 22.2341 25.5026 22.2341 24.5359C22.2341 23.659 22.8403 22.9708 23.8877 22.7614Z" fill="#657786"/>
</svg>
