<svg width="12" height="20" viewBox="0 0 12 20" fill="none" xmlns="http://www.w3.org/2000/svg">
  <path d="M5.138 16.978C3.862 16.8607 2.784 16.4867 1.904 15.856C1.03867 15.2253 0.415333 14.3527 0.034 13.238L1.662 12.402C1.82333 13.194 2.22667 13.8687 2.872 14.426C3.51733 14.9687 4.27267 15.3207 5.138 15.482V10.378C4.18467 10.1727 3.39267 9.95267 2.762 9.718C2.146 9.46867 1.63267 9.102 1.222 8.618C0.811333 8.134 0.606 7.48867 0.606 6.682C0.606 5.94867 0.789333 5.28133 1.156 4.68C1.52267 4.07867 2.04333 3.58733 2.718 3.206C3.40733 2.81 4.214 2.57533 5.138 2.502V0.279999H6.656V2.524C7.74133 2.612 8.636 2.90533 9.34 3.404C10.0587 3.888 10.6747 4.60667 11.188 5.56L9.758 6.682C9.39133 5.83133 8.97333 5.20067 8.504 4.79C8.03467 4.37933 7.41867 4.12267 6.656 4.02V9.19C7.60933 9.39533 8.394 9.62267 9.01 9.872C9.64067 10.1067 10.1613 10.4733 10.572 10.972C10.9973 11.4707 11.21 12.138 11.21 12.974C11.21 14.1033 10.7993 15.0273 9.978 15.746C9.15667 16.45 8.04933 16.8607 6.656 16.978V19.2H5.138V16.978ZM5.138 3.998C4.19933 4.086 3.488 4.35 3.004 4.79C2.52 5.23 2.278 5.81667 2.278 6.55C2.278 7.21 2.52 7.70867 3.004 8.046C3.50267 8.38333 4.214 8.662 5.138 8.882V3.998ZM6.656 15.526C8.592 15.3647 9.56 14.558 9.56 13.106C9.56 12.4313 9.30333 11.918 8.79 11.566C8.29133 11.214 7.58 10.928 6.656 10.708V15.526Z" fill="#657786"/>
</svg>
