<?xml version="1.0" encoding="UTF-8"?>
<svg width="40px" height="35px" viewBox="0 0 40 35" version="1.1" xmlns="http://www.w3.org/2000/svg" xmlns:xlink="http://www.w3.org/1999/xlink">
    <!-- Generator: Sketch 61 (89581) - https://sketch.com -->
    <title>icon / Insurances / insuranceAuto</title>
    <desc>Created with Sketch.</desc>
    <g id="Dashboard" stroke="none" stroke-width="1" fill="none" fill-rule="evenodd">
        <g id="1-Dt-1440-3-setupDashboard-1-Default" transform="translate(-1131.000000, -272.000000)" fill="#657786" fill-rule="nonzero">
            <g id="Other-services" transform="translate(152.000000, 224.000000)">
                <g id="Services" transform="translate(0.000000, 9.000000)">
                    <g id="Line-1">
                        <g id="Product-Card-1" transform="translate(864.000000, 0.000000)">
                            <g id="icon-/-Savings-/-weddingParty" transform="translate(115.000000, 36.000000)">
                                <path d="M28.4210526,14.1111111 C34.8159287,14.1111111 40,19.3344557 40,25.7777778 C40,32.2210999 34.8159287,37.4444444 28.4210526,37.4444444 C25.1026039,37.4444444 22.110202,36.0378962 19.9990563,33.7842149 L19.8626399,33.9293444 C17.7601194,36.0981197 14.8255767,37.4444444 11.5789474,37.4444444 C5.18407132,37.4444444 -4.31654712e-13,32.2210999 -4.31654712e-13,25.7777778 C-4.31654712e-13,19.3344557 5.18407132,14.1111111 11.5789474,14.1111111 C14.7897161,14.1111111 17.6952544,15.4278585 19.792666,17.5546473 L20.000689,17.7710687 C22.1104428,15.5175462 25.1027374,14.1111111 28.4210526,14.1111111 Z M28.4210526,16.4444444 C25.6377453,16.4444444 23.1381969,17.692957 21.4451352,19.6694258 L21.530347,19.8098177 C22.5640272,21.5559004 23.1578947,23.5969611 23.1578947,25.7777778 C23.1578947,28.0321004 22.523319,30.1370872 21.4243311,31.9212854 L21.4457724,31.8863384 C23.1380395,33.86252 25.6376577,35.1111111 28.4210526,35.1111111 C33.5079791,35.1111111 37.6470588,30.9406747 37.6470588,25.7777778 C37.6470588,20.6148808 33.5079791,16.4444444 28.4210526,16.4444444 Z M11.5789474,16.4444444 C6.4920209,16.4444444 2.35294118,20.6148808 2.35294118,25.7777778 C2.35294118,30.9406747 6.4920209,35.1111111 11.5789474,35.1111111 C16.6658738,35.1111111 20.8049536,30.9406747 20.8049536,25.7777778 C20.8049536,20.6148808 16.6658738,16.4444444 11.5789474,16.4444444 Z M15.4380651,3.98755996 C16.6766612,2.76867228 18.6364653,2.66838405 20.0004889,3.74069663 C21.3645125,2.67609853 23.3243165,2.77638676 24.5550734,3.98755996 C24.5629126,3.99527444 24.5629126,3.99527444 24.5629126,3.99527444 C25.8877402,5.30673586 25.8877402,7.42821757 24.5550734,8.739679 L24.5550734,8.739679 L20.3297359,12.8669252 C20.1415948,13.0443583 19.8437045,13.0443583 19.6634026,12.8669252 L19.6634026,12.8669252 L15.4380651,8.739679 C14.1132376,7.42821757 14.1132376,5.30673586 15.4380651,3.98755996 Z" id="Combined-Shape"></path>
                            </g>
                        </g>
                    </g>
                </g>
            </g>
        </g>
    </g>
</svg>