<svg width="40" height="40" viewBox="0 0 40 40" fill="none" xmlns="http://www.w3.org/2000/svg">
<path fill-rule="evenodd" clip-rule="evenodd" d="M25.7966 5.02898L19.8546 8.56521C19.4198 8.68115 19.1879 9.11594 19.3039 9.55072L19.7097 11.3768C19.8256 11.8116 20.2604 12.0435 20.6952 11.9565L27.5937 11.7536C28.0285 11.6377 28.2604 11.2029 28.1444 10.7681C28.1734 9.86956 28.0575 8.99999 27.8546 8.13043C27.5937 7.26086 27.2459 6.42028 26.7821 5.60869C26.6372 5.17391 26.2024 4.91304 25.7966 5.02898Z" fill="#6EA9A1"/>
<path fill-rule="evenodd" clip-rule="evenodd" d="M13.4198 5.02898L19.3618 8.56521C19.7966 8.68115 20.0285 9.11594 19.9126 9.55072L19.5068 11.3768C19.3908 11.8116 18.956 12.0435 18.5213 11.9565L11.6227 11.7536C11.1879 11.6377 10.956 11.2029 11.072 10.7681C11.043 9.86956 11.1589 8.99999 11.3618 8.13043C11.6227 7.26086 11.9705 6.42028 12.4343 5.60869C12.5503 5.17391 12.985 4.91304 13.4198 5.02898Z" fill="#99D3CB"/>
<path d="M18.2024 7.02898H21.5358C21.9416 7.02898 22.2604 7.34782 22.2604 7.75361V11.1159C22.2604 11.5217 21.9416 11.8406 21.5358 11.8406H18.2024C17.7966 11.8406 17.4778 11.5217 17.4778 11.1159V7.75361C17.4778 7.3768 17.7966 7.02898 18.2024 7.02898Z" fill="#84BEB6"/>
<path fill-rule="evenodd" clip-rule="evenodd" d="M39.7971 24.3913V30.2464H0.144897V19.029L5.7391 11.5507H21.971L27.5652 17.9565L34.4927 19.029C36.3768 19.2899 38.029 20.0145 38.9855 21.4348C39.5072 22.2174 39.7971 23.1739 39.7971 24.3913Z" fill="#2F7CF8"/>
<path d="M39.797 27.348H0.14502V30.247H39.797V27.348Z" fill="#2658CD"/>
<path d="M39.7971 24.3913V24.913H36.2898C35.884 24.913 35.5652 24.5942 35.5652 24.1884V22.1594C35.5652 21.7536 35.884 21.4348 36.2898 21.4348H38.9565C39.5072 22.2174 39.7971 23.1739 39.7971 24.3913ZM3.82606 22.1594V24.1884C3.82606 24.5942 3.50722 24.913 3.10142 24.913H0.144897V21.4348H3.10142C3.50722 21.4348 3.82606 21.7536 3.82606 22.1594Z" fill="#2658CD"/>
<path fill-rule="evenodd" clip-rule="evenodd" d="M4.435 18.797L8.261 13.986H19.884L24.377 18.797H4.435Z" fill="#2658CD"/>
<path d="M8.92798 33.986C11.1371 33.986 12.928 32.1951 12.928 29.986C12.928 27.7769 11.1371 25.986 8.92798 25.986C6.71884 25.986 4.92798 27.7769 4.92798 29.986C4.92798 32.1951 6.71884 33.986 8.92798 33.986Z" fill="#2F7CF8"/>
<path d="M8.92798 28.3048C9.85551 28.3048 10.6091 29.0584 10.6091 29.9859C10.6091 30.9135 9.85551 31.6671 8.92798 31.6671C8.00044 31.6671 7.24682 30.9135 7.24682 29.9859C7.24682 29.0584 8.00044 28.3048 8.92798 28.3048ZM8.92798 25.9859C6.72508 25.9859 4.92798 27.783 4.92798 29.9859C4.92798 32.1888 6.72508 33.9859 8.92798 33.9859C11.1309 33.9859 12.928 32.1888 12.928 29.9859C12.928 27.783 11.1309 25.9859 8.92798 25.9859Z" fill="#2658CD"/>
<path d="M17.7681 10.7681H21.971C22.1449 10.7681 22.2609 10.8841 22.2609 11.058V30.7681C22.2609 30.942 22.1449 31.058 21.971 31.058H17.7681C17.5942 31.058 17.4783 30.942 17.4783 30.7681V11.058C17.4783 10.913 17.5942 10.7681 17.7681 10.7681Z" fill="#99D3CB"/>
<path d="M30.754 33.986C32.9632 33.986 34.754 32.1951 34.754 29.986C34.754 27.7769 32.9632 25.986 30.754 25.986C28.5449 25.986 26.754 27.7769 26.754 29.986C26.754 32.1951 28.5449 33.986 30.754 33.986Z" fill="#2F7CF8"/>
<path d="M30.754 28.3048C31.6815 28.3048 32.4351 29.0584 32.4351 29.9859C32.4351 30.9135 31.6815 31.6671 30.754 31.6671C29.8264 31.6671 29.0728 30.9135 29.0728 29.9859C29.0728 29.0584 29.8264 28.3048 30.754 28.3048ZM30.754 25.9859C28.5511 25.9859 26.754 27.783 26.754 29.9859C26.754 32.1888 28.5511 33.9859 30.754 33.9859C32.9569 33.9859 34.754 32.1888 34.754 29.9859C34.754 27.783 32.9569 25.9859 30.754 25.9859Z" fill="#2658CD"/>
<path d="M25.1884 18.1594V20.1884C25.1884 20.5942 24.8695 20.913 24.4637 20.913H20.0579C19.6522 20.913 19.3333 20.5942 19.3333 20.1884V18.1594C19.3333 17.7536 19.6522 17.4348 20.0579 17.4348H24.4637C24.8695 17.4348 25.1884 17.7826 25.1884 18.1594Z" fill="#2F7CF8"/>
<path d="M25.1884 18.1594V20.1884C25.1884 20.5942 24.8696 20.913 24.4638 20.913H22.2609V17.4348H24.4638C24.8696 17.4348 25.1884 17.7826 25.1884 18.1594Z" fill="#2658CD"/>
</svg>
