<svg width="40" height="40" viewBox="0 0 40 40" fill="none" xmlns="http://www.w3.org/2000/svg">
<path fill-rule="evenodd" clip-rule="evenodd" d="M13.463 3H30.602L17.236 15.683H0.130005L13.463 3Z" fill="#2F7CF8"/>
<path d="M38.2439 29.7642C38.1138 29.7642 37.9838 29.7317 37.8537 29.6341C37.0732 29.0813 36.6179 28.2683 36.4878 27.3902C36.0651 27.2602 35.6098 27.0325 35.2195 26.7073C33.2033 25.1138 34.1789 22.2195 34.2439 22.0894C34.374 21.7642 34.7317 21.5691 35.0569 21.6992C35.3821 21.8293 35.5772 22.187 35.4472 22.5122C35.4472 22.5447 34.7317 24.6585 36 25.6667C36.1951 25.8293 36.3903 25.9268 36.5529 26.0244C36.7155 25.3415 37.0732 24.7561 37.5285 24.4959C37.9838 24.2358 38.5366 24.2358 38.9919 24.5285C39.5122 24.8211 39.8699 25.4065 39.8699 26.0244C39.8699 26.5447 39.5122 27 38.9268 27.2927C38.6016 27.4553 38.2439 27.5528 37.8211 27.5854C37.9187 27.9431 38.1464 28.3008 38.5691 28.626C38.8618 28.8537 38.9268 29.2439 38.6992 29.5366C38.6342 29.6667 38.439 29.7642 38.2439 29.7642ZM38.2764 25.6016C38.2439 25.6016 38.2439 25.6016 38.2114 25.6016C38.1464 25.6341 37.9512 25.8618 37.8537 26.2195C37.9187 26.2195 37.9838 26.187 38.0163 26.187C38.3415 26.122 38.5366 25.9919 38.5691 25.9268C38.5366 25.7642 38.439 25.6667 38.374 25.6016C38.374 25.6016 38.3415 25.6016 38.2764 25.6016Z" fill="#6EA9A1"/>
<path fill-rule="evenodd" clip-rule="evenodd" d="M15.5447 29.374C16.9756 29.374 17.5935 30.0244 17.5935 31.4228L17.2358 35.3577C17.0081 37.1463 16.0976 37.9268 14.6667 37.9268C13.2358 37.9268 12.0976 36.7886 12.0976 35.3577L11.7398 30.3821C11.7724 28.9837 14.1138 29.374 15.5447 29.374ZM28.878 29.374C27.4472 29.374 26.8293 30.0244 26.8293 31.4228L27.187 35.3577C27.4146 37.1463 28.3252 37.9268 29.7561 37.9268C31.187 37.9268 32.3252 36.7886 32.3252 35.3577L32.6829 30.3821C32.6504 28.9837 30.3089 29.374 28.878 29.374Z" fill="#6EA9A1"/>
<path d="M22.374 35.195C29.7558 35.195 35.74 29.9097 35.74 23.39C35.74 16.8703 29.7558 11.585 22.374 11.585C14.9922 11.585 9.008 16.8703 9.008 23.39C9.008 29.9097 14.9922 35.195 22.374 35.195Z" fill="#99D3CB"/>
<path d="M18.764 20.789C19.3163 20.789 19.764 20.1774 19.764 19.423C19.764 18.6686 19.3163 18.057 18.764 18.057C18.2117 18.057 17.764 18.6686 17.764 19.423C17.764 20.1774 18.2117 20.789 18.764 20.789Z" fill="#6EA9A1"/>
<path d="M26.309 20.789C26.8613 20.789 27.309 20.1774 27.309 19.423C27.309 18.6686 26.8613 18.057 26.309 18.057C25.7567 18.057 25.309 18.6686 25.309 19.423C25.309 20.1774 25.7567 20.789 26.309 20.789Z" fill="#6EA9A1"/>
<path d="M22.374 29.016C25.0322 29.016 27.187 27.3272 27.187 25.244C27.187 23.1608 25.0322 21.472 22.374 21.472C19.7159 21.472 17.561 23.1608 17.561 25.244C17.561 27.3272 19.7159 29.016 22.374 29.016Z" fill="#6EA9A1"/>
<path d="M20.488 26.61C21.0403 26.61 21.488 25.9984 21.488 25.244C21.488 24.4896 21.0403 23.878 20.488 23.878C19.9357 23.878 19.488 24.4896 19.488 25.244C19.488 25.9984 19.9357 26.61 20.488 26.61Z" fill="#99D3CB"/>
<path d="M24.585 26.61C25.1373 26.61 25.585 25.9984 25.585 25.244C25.585 24.4896 25.1373 23.878 24.585 23.878C24.0327 23.878 23.585 24.4896 23.585 25.244C23.585 25.9984 24.0327 26.61 24.585 26.61Z" fill="#99D3CB"/>
<path fill-rule="evenodd" clip-rule="evenodd" d="M25.3658 12.1057C25.3658 12.1057 26.6341 9.95934 29.7886 8.98373C30.8943 8.65853 32.0325 8.49593 33.1707 8.46341C33.5284 9.50406 33.8211 10.6098 33.9837 11.6829C34.1138 13.0813 33.8862 14.9024 32.7805 16.9512C32.2602 17.9268 29.3333 17.1789 27.6423 15.9756C25.7561 14.7073 25.3658 12.1057 25.3658 12.1057Z" fill="#99D3CB"/>
<path d="M5.919 13.602H4.293V28.659H5.919V13.602Z" fill="#2F7CF8"/>
<path fill-rule="evenodd" clip-rule="evenodd" d="M4.00001 25.9594H6.14635C6.60164 25.9594 6.95936 26.3496 6.95936 26.8049V32.4634L5.20326 31.0325L3.21952 32.4634V26.8049C3.187 26.3496 3.54473 25.9594 4.00001 25.9594ZM25.8862 11.7155C25.8862 11.7155 21.3984 12.3659 17.561 14.0569C15.0244 15.2276 12.6504 16.7561 10.5691 18.6098L7.96749 13.4065C7.96749 13.4065 9.69107 10.7398 14.7642 8.49594C19.6423 6.3496 23.6098 6.5122 23.6098 6.5122L25.8862 11.7155Z" fill="#2658CD"/>
</svg>
