<svg width="40" height="40" viewBox="0 0 40 40" fill="none" xmlns="http://www.w3.org/2000/svg">
<path d="M20.5 0C27.3 0 32.9 5.5 32.9 12.4C32.9 23.3 32.7 39.9 20.5 39.9C8.19998 39.8 8.09998 23.9 8.09998 12.4C8.09998 5.5 13.7 0 20.5 0Z" fill="#2658CD"/>
<path opacity="0.5" d="M12 35.6C13.8 38.2 16.5 39.8 20.5 39.8C31.8 39.8 32.8 25.6 32.9 14.8L12 35.6Z" fill="#2F7CF8"/>
<path d="M8.09998 15.1C8.19998 26.3 9.19998 39.8 20.5 39.8C24.3 39.8 26.9 38.2 28.8 35.7L8.09998 15.1Z" fill="#2F7CF8"/>
<path d="M20.2 4.3C24 4.3 27 7.6 27 11.7C27 15.8 23.9 19.1 20.2 19.1C16.5 19.1 13.4 15.8 13.4 11.7C13.4 7.6 16.4 4.3 20.2 4.3Z" fill="white"/>
<path d="M20.2 4.3C24 4.3 27 7.6 27 11.7C27 15.8 23.9 19.1 20.2 19.1C16.5 19.1 13.4 15.8 13.4 11.7C13.4 7.6 16.4 4.3 20.2 4.3Z" fill="white"/>
<path d="M26.7 9.8C27.7 9.8 28.6 10.6 28.6 11.7C28.6 12.7 27.8 13.6 26.7 13.6C25.7 13.6 24.8 12.8 24.8 11.7C24.8 10.6 25.7 9.8 26.7 9.8ZM14 9.8C15 9.8 15.9 10.6 15.9 11.7C15.9 12.7 15.1 13.6 14 13.6C13 13.6 12.1 12.8 12.1 11.7C12.1 10.6 13 9.8 14 9.8Z" fill="white"/>
<path d="M17.8 10.3C18.4 10.3 18.9 10.8 18.9 11.4C18.9 12 18.4 12.5 17.8 12.5C17.2 12.5 16.7 12 16.7 11.4C16.6 10.9 17.1 10.3 17.8 10.3ZM22.3 10.3C22.9 10.3 23.4 10.8 23.4 11.4C23.4 12 22.9 12.5 22.3 12.5C21.7 12.5 21.2 12 21.2 11.4C21.2 10.9 21.7 10.3 22.3 10.3Z" fill="#99D3CB"/>
<path d="M20.3 17C18.8 17 17.5 15.9 17.5 14.5C17.5 14.2 17.8 13.9 18.1 13.9C18.4 13.9 18.7 14.2 18.7 14.5C18.7 15.2 19.4 15.8 20.3 15.8C21.2 15.8 21.9 15.2 21.9 14.5C21.9 14.2 22.2 13.9 22.5 13.9C22.8 13.9 23.1 14.2 23.1 14.5C23.1 15.9 21.9 17 20.3 17Z" fill="#99D3CB"/>
<path d="M20.2 4.3C18.6 4.3 17.2 4.9 16 5.9C16.1 5.9 16.3 5.9 16.4 5.9C18.1 5.9 18.4 7.7 20.1 7.7C21.8 7.7 21.8 5.9 23.5 5.9C24 5.9 24.4 6.1 24.8 6.3C23.6 5 22 4.3 20.2 4.3Z" fill="#99D3CB"/>
</svg>
