<svg width="37" height="40" viewBox="0 0 37 40" fill="none" xmlns="http://www.w3.org/2000/svg">
<path fill-rule="evenodd" clip-rule="evenodd" d="M36.4059 17.035C38.2542 19.0017 35.3662 21.8939 33.5178 19.9272L18.5 5.0035C15.8862 7.6211 13.3891 10.0925 10.9061 12.5499L10.906 12.5501C8.45077 14.9801 6.0093 17.3965 3.48216 19.9272C1.63381 21.8939 -1.25424 19.0017 0.594109 17.035L3.13559 14.6056V6.04469H9.14273V8.47413L16.9982 0.607361C17.8069 -0.202454 19.1931 -0.202454 20.0018 0.607361L36.4059 17.035ZM20.5294 36.4706C19.9695 35.2139 19.6573 33.8186 19.6562 32.3492C19.6583 26.8268 24.0594 22.3516 29.4868 22.3529C30.7022 22.3533 31.8659 22.578 32.9402 22.9887V21.4312C32.9053 21.3961 32.8597 21.3611 32.8099 21.3229C32.6954 21.2348 32.5587 21.1297 32.4781 20.9684L18.5 7.08588L4.52185 20.9684C4.44131 21.1297 4.30461 21.2348 4.19006 21.3229C4.14031 21.3611 4.09474 21.3961 4.05976 21.4312V36.4706H9.13757V25.7925C9.13757 24.6656 9.71518 23.8606 10.4083 23.8606H15.0292C15.7223 23.8606 16.2999 24.6656 16.2999 25.7925V36.4706H20.5294ZM29.4844 40C33.6348 40 36.9995 36.5769 37 32.3539C37.0005 28.1309 33.6367 24.7069 29.4863 24.7059C25.3359 24.7048 21.9703 28.1271 21.9688 32.3501C21.9719 36.5726 25.3344 39.9952 29.4844 40ZM28.8595 28.4517V27.8763C28.8595 27.6584 28.9737 27.4571 29.1592 27.3481C29.3447 27.2392 29.5732 27.2392 29.7586 27.3481C29.9441 27.4571 30.0584 27.6584 30.0584 27.8763V28.3625C30.4401 28.375 30.8194 28.43 31.1894 28.5265C31.5306 28.622 31.7505 28.9587 31.705 29.3158C31.6594 29.6729 31.3623 29.9412 31.0084 29.9449C30.9424 29.9449 30.8767 29.9352 30.8133 29.9161C30.4619 29.8099 30.097 29.7566 29.7304 29.7579C28.9358 29.7579 28.6785 30.106 28.6785 30.4541C28.6785 30.8655 29.1083 31.1273 30.146 31.5244C31.6022 32.048 32.1903 32.7327 32.1903 33.8547C32.1903 34.9768 31.4184 35.9089 30.0103 36.1563V36.8353C30.0103 37.1722 29.7419 37.4452 29.4109 37.4452C29.0798 37.4452 28.8114 37.1722 28.8114 36.8353V36.2599C28.3109 36.2307 27.8165 36.134 27.3411 35.9722C26.9858 35.855 26.7806 35.4777 26.8717 35.1091L26.8859 35.0487C26.9701 34.7421 27.2459 34.531 27.5588 34.5337C27.6387 34.534 27.718 34.5476 27.7935 34.574C28.2193 34.7239 28.6663 34.8016 29.1168 34.8041C29.8152 34.8041 30.2931 34.5164 30.2931 34.0331C30.2931 33.5498 29.9 33.2621 28.9952 32.9485C27.6861 32.4997 26.7925 31.8782 26.7925 30.6699C26.7925 29.5738 27.5503 28.7135 28.8595 28.4517Z" fill="#657786"/>
</svg>
