<svg width="40" height="40" viewBox="0 0 40 40" fill="none" xmlns="http://www.w3.org/2000/svg">
<path fill-rule="evenodd" clip-rule="evenodd" d="M17.871 7.419L15.742 10.806H9.64499L7.51599 7.323L7.54799 7.226L9.58099 4L15.968 4.065L17.742 7.226L17.871 7.419Z" fill="#99D3CB"/>
<path fill-rule="evenodd" clip-rule="evenodd" d="M17.871 7.419L15.742 10.806H9.64499L7.51599 7.323L7.54799 7.226H17.742L17.871 7.419Z" fill="#6EA9A1"/>
<path d="M13.0968 13.9355C18 13.9355 21.9677 17.9032 22 22.8065C22 25.1936 21.0968 27.4194 19.4194 29.0968C17.7419 30.7742 15.5161 31.7097 13.129 31.7419H13.0968C8.19355 31.7419 4.22581 27.7742 4.19355 22.871V22.8387C4.19355 20.4516 5.09677 18.2258 6.77419 16.5484C8.45161 14.871 10.6774 13.9355 13.0645 13.9355H13.0968ZM13.0968 9.74194C13.0645 9.74194 13.0645 9.74194 13.0323 9.74194C5.83871 9.74194 0 15.6129 0 22.8387C0 22.871 0 22.871 0 22.9032C0.0322581 30.129 5.87097 35.9355 13.0968 35.9355C13.129 35.9355 13.129 35.9355 13.1613 35.9355C20.3871 35.9032 26.2258 30.0323 26.1937 22.7742C26.1613 15.5807 20.3226 9.74194 13.0968 9.74194Z" fill="#99D3CB"/>
<path d="M26.677 13.9356C31.5802 13.9356 35.548 17.9034 35.5802 22.8066C35.5802 25.1937 34.677 27.4195 32.9996 29.0969C31.3222 30.7743 29.0963 31.7098 26.7093 31.7421H26.677C21.7738 31.7421 17.806 27.7743 17.7738 22.8711V22.8388C17.7738 20.4517 18.677 18.2259 20.3544 16.5485C22.0318 14.8711 24.2576 13.9356 26.6447 13.9356H26.677ZM26.677 9.74207C26.6447 9.74207 26.6447 9.74207 26.6125 9.74207C19.3867 9.74207 13.548 15.613 13.5801 22.8388C13.5801 22.8711 13.5801 22.8711 13.5801 22.9034C13.6125 30.1292 19.4512 35.9356 26.677 35.9356C26.7093 35.9356 26.7093 35.9356 26.7415 35.9356C33.9673 35.9034 39.806 30.0324 39.7739 22.7743C39.7415 15.5808 33.9028 9.74207 26.677 9.74207Z" fill="#2F7CF8"/>
<path d="M13.0968 9.74194H13.0645C5.83871 9.74194 0 15.6129 0 22.8065V22.8387H4.19355C4.19355 20.4516 5.09677 18.2258 6.77419 16.5484C8.45161 14.871 10.6774 13.9355 13.0645 13.9355H13.0968C18 13.9355 21.9677 17.9032 22 22.8065V22.8387H26.1935V22.7742C26.1613 15.5807 20.3226 9.74194 13.0968 9.74194Z" fill="#99D3CB"/>
</svg>
