<?xml version="1.0" encoding="UTF-8"?>
<svg width="18px" height="18px" viewBox="0 0 18 18" version="1.1" xmlns="http://www.w3.org/2000/svg" xmlns:xlink="http://www.w3.org/1999/xlink">
    <!-- Generator: Sketch 61 (89581) - https://sketch.com -->
    <title>icon / Miscellaneous / Tip</title>
    <desc>Created with Sketch.</desc>
    <g id="Dashboard" stroke="none" stroke-width="1" fill="none" fill-rule="evenodd">
        <g id="1-Dt-1440-3-setupDashboard-1-Default" transform="translate(-168.000000, -251.000000)">
            <g id="Other-services" transform="translate(152.000000, 224.000000)">
                <g id="Services" transform="translate(0.000000, 9.000000)">
                    <g id="Line-1">
                        <g id="Product-Card-1">
                            <g id="icon-/-Miscellaneous-/-Tip" transform="translate(16.000000, 18.000000)">
                                <path d="M9,17 C13.418278,17 17,13.418278 17,9 C17,4.581722 13.418278,1 9,1 C4.581722,1 1,4.581722 1,9 C1,13.418278 4.581722,17 9,17 Z M9,18 C4.02943725,18 0,13.9705627 0,9 C0,4.02943725 4.02943725,0 9,0 C13.9705627,0 18,4.02943725 18,9 C18,13.9705627 13.9705627,18 9,18 Z" id="Oval" fill="#AAB8C2"></path>
                                <circle id="Oval" fill="#FFFFFF" cx="9" cy="9" r="8.1"></circle>
                                <path d="M9.9,8.1137633 L9.9,12.4073138 C9.9,12.7671561 9.81428657,13.0392278 9.64285714,13.2235372 C9.47142771,13.4078467 9.25384747,13.5 8.99010989,13.5 C8.72637231,13.5 8.51208874,13.4056525 8.34725275,13.2169548 C8.18241676,13.028257 8.1,12.7583794 8.1,12.4073138 L8.1,8.16642287 C8.1,7.81096897 8.18241676,7.54328547 8.34725275,7.36336436 C8.51208874,7.18344325 8.72637231,7.09348404 8.99010989,7.09348404 C9.25384747,7.09348404 9.47142771,7.18344325 9.64285714,7.36336436 C9.81428657,7.54328547 9.9,7.79341595 9.9,8.1137633 Z M9.00989011,6.2575133 C8.75933941,6.2575133 8.54505584,6.18071885 8.36703297,6.02712766 C8.1890101,5.87353647 8.1,5.65631789 8.1,5.37546543 C8.1,5.12094288 8.19120788,4.91140375 8.37362637,4.74684176 C8.55604487,4.58227976 8.76813066,4.5 9.00989011,4.5 C9.24285831,4.5 9.44944965,4.57460032 9.62967033,4.72380319 C9.80989101,4.87300607 9.9,5.09022464 9.9,5.37546543 C9.9,5.65192957 9.81208879,5.86805108 9.63626374,6.02383644 C9.46043868,6.17962179 9.25164956,6.2575133 9.00989011,6.2575133 Z" id="i" fill="#AAB8C2"></path>
                            </g>
                        </g>
                    </g>
                </g>
            </g>
        </g>
    </g>
</svg>